<svg width="24" height="24" viewBox="0 0 24 24" fill="none" xmlns="http://www.w3.org/2000/svg">
<rect width="24" height="24" rx="5" fill="black"/>
<path d="M8.68 17V6.324H10.482V9.01H12.131C12.6523 9.01 13.0547 9.078 13.338 9.214C13.6213 9.35 13.8197 9.55967 13.933 9.843C14.0463 10.115 14.103 10.472 14.103 10.914V14.637C14.103 15.249 14.0803 15.725 14.035 16.065C13.9897 16.405 13.8593 16.6487 13.644 16.796C13.4287 16.932 13.0603 17 12.539 17H8.68ZM10.482 15.555H11.655C11.8363 15.555 11.9667 15.538 12.046 15.504C12.1367 15.4587 12.199 15.3737 12.233 15.249C12.2783 15.1243 12.301 14.9317 12.301 14.671V11.288C12.301 11.084 12.284 10.9253 12.25 10.812C12.2273 10.6873 12.1707 10.5967 12.08 10.54C11.9893 10.4833 11.8533 10.455 11.672 10.455H10.482V15.555Z" fill="#00BAFF"/>
</svg>
