<svg width="32" height="32" viewBox="0 0 32 32" fill="none" xmlns="http://www.w3.org/2000/svg">
<path d="M27.3747 10.1299C28.9449 9.3188 29.5825 7.36117 28.4757 5.9834C26.9692 4.10817 25.0501 2.58561 22.8515 1.54417C19.6824 0.0430865 16.1081 -0.37537 12.678 0.353154C9.24799 1.08168 6.15226 2.91684 3.86694 5.57639C1.58163 8.23595 0.23329 11.5726 0.0292953 15.0732C-0.1747 18.5738 0.776946 22.0445 2.73787 24.9515C4.6988 27.8585 7.56042 30.0408 10.8826 31.1628C14.2048 32.2849 17.8036 32.2844 21.1255 31.1616C23.4303 30.3826 25.5132 29.0932 27.2273 27.4057C28.4867 26.1658 28.0808 24.1473 26.6154 23.1594C25.15 22.1714 23.1811 22.6182 21.768 23.6796C20.9572 24.2887 20.0497 24.7695 19.0762 25.0986C17.083 25.7723 14.9238 25.7725 12.9304 25.0993C10.9371 24.4261 9.22016 23.1167 8.0436 21.3725C6.86705 19.6283 6.29606 17.5459 6.41846 15.4455C6.54085 13.3452 7.34986 11.3432 8.72104 9.74745C10.0922 8.15171 11.9497 7.05062 14.0077 6.6135C16.0657 6.17639 18.2103 6.42746 20.1118 7.32811C21.0404 7.76801 21.886 8.35096 22.6206 9.05009C23.9007 10.2685 25.8045 10.9409 27.3747 10.1299Z" fill="#FFB400"/>
<path d="M27.3749 10.1302C28.9451 9.31915 29.5828 7.36159 28.476 5.98378C27.5549 4.83716 26.4769 3.81901 25.2696 2.96123C23.1891 1.48293 20.7851 0.523803 18.2584 0.163905C15.7317 -0.195994 13.1555 0.0537846 10.745 0.892386C8.33446 1.73099 6.15952 3.13408 4.40175 4.98452C2.64398 6.83496 1.35438 9.07905 0.640617 11.5294C-0.0731434 13.9798 -0.190354 16.5654 0.298771 19.0704C0.787896 21.5753 1.86916 23.9269 3.4523 25.9287C4.37093 27.0904 5.44307 28.1147 6.63546 28.9757C8.06826 30.0103 9.99052 29.273 10.7199 27.6632C11.4492 26.0534 10.6799 24.1867 9.39737 22.9708C9.06626 22.6569 8.75697 22.3189 8.47226 21.9589C7.52238 20.7577 6.87362 19.3468 6.58014 17.8438C6.28667 16.3409 6.35699 14.7895 6.78525 13.3193C7.2135 11.849 7.98726 10.5026 9.04193 9.39232C10.0966 8.28206 11.4016 7.4402 12.8479 6.93704C14.2942 6.43388 15.8399 6.28401 17.3559 6.49995C18.872 6.71589 20.3143 7.29137 21.5627 8.17835C21.9368 8.4442 22.2903 8.73573 22.6208 9.05029C23.9009 10.2687 25.8046 10.9412 27.3749 10.1302Z" fill="white"/>
</svg>
