<svg width="88" height="17" viewBox="0 0 88 17" fill="none" xmlns="http://www.w3.org/2000/svg">
<path d="M12.8047 15.4521C11.6803 15.9964 10.2122 16.2686 8.40039 16.2686C6.03711 16.2686 4.17871 15.5739 2.8252 14.1846C1.47168 12.7952 0.794922 10.944 0.794922 8.63086C0.794922 6.16732 1.55404 4.16927 3.07227 2.63672C4.59766 1.10417 6.57422 0.337891 9.00195 0.337891C10.5059 0.337891 11.7734 0.527669 12.8047 0.907227V4.24805C11.7734 3.63216 10.599 3.32422 9.28125 3.32422C7.83464 3.32422 6.66732 3.77897 5.7793 4.68848C4.89128 5.59798 4.44727 6.82975 4.44727 8.38379C4.44727 9.87337 4.86621 11.0622 5.7041 11.9502C6.54199 12.8311 7.66992 13.2715 9.08789 13.2715C10.4414 13.2715 11.6803 12.9421 12.8047 12.2832V15.4521ZM24.3096 16H21.0977V14.4209H21.0547C20.3171 15.6527 19.2249 16.2686 17.7783 16.2686C16.7113 16.2686 15.8698 15.9678 15.2539 15.3662C14.6452 14.7575 14.3408 13.9482 14.3408 12.9385C14.3408 10.8044 15.6048 9.57259 18.1328 9.24316L21.1191 8.8457C21.1191 7.64258 20.4674 7.04102 19.1641 7.04102C17.8535 7.04102 16.6074 7.43132 15.4258 8.21191V5.65527C15.8984 5.41178 16.543 5.19694 17.3594 5.01074C18.1829 4.82454 18.9313 4.73145 19.6045 4.73145C22.7412 4.73145 24.3096 6.29622 24.3096 9.42578V16ZM21.1191 11.5312V10.79L19.1211 11.0479C18.0182 11.1911 17.4668 11.6888 17.4668 12.541C17.4668 12.9277 17.5993 13.2464 17.8643 13.4971C18.1364 13.7406 18.5016 13.8623 18.96 13.8623C19.5973 13.8623 20.1165 13.6439 20.5176 13.207C20.9186 12.763 21.1191 12.2044 21.1191 11.5312ZM34.1709 8.06152C33.7627 7.83952 33.2865 7.72852 32.7422 7.72852C32.0046 7.72852 31.4281 8.00065 31.0127 8.54492C30.5973 9.08203 30.3896 9.81608 30.3896 10.7471V16H26.9951V5H30.3896V7.04102H30.4326C30.9697 5.55143 31.9365 4.80664 33.333 4.80664C33.6911 4.80664 33.9704 4.84961 34.1709 4.93555V8.06152ZM45.5576 11.4668H38.3818C38.4964 13.0638 39.5026 13.8623 41.4004 13.8623C42.6107 13.8623 43.6742 13.5758 44.5908 13.0029V15.4521C43.5739 15.9964 42.2526 16.2686 40.627 16.2686C38.8509 16.2686 37.4723 15.778 36.4912 14.7969C35.5101 13.8086 35.0195 12.4336 35.0195 10.6719C35.0195 8.8457 35.5495 7.39909 36.6094 6.33203C37.6693 5.26497 38.9727 4.73145 40.5195 4.73145C42.1237 4.73145 43.3626 5.20768 44.2363 6.16016C45.1172 7.11263 45.5576 8.40527 45.5576 10.0381V11.4668ZM42.4102 9.38281C42.4102 7.80729 41.7728 7.01953 40.498 7.01953C39.9538 7.01953 39.4811 7.24512 39.0801 7.69629C38.6862 8.14746 38.4463 8.70964 38.3604 9.38281H42.4102ZM57.46 11.4668H50.2842C50.3988 13.0638 51.4049 13.8623 53.3027 13.8623C54.513 13.8623 55.5765 13.5758 56.4932 13.0029V15.4521C55.4762 15.9964 54.1549 16.2686 52.5293 16.2686C50.7533 16.2686 49.3747 15.778 48.3936 14.7969C47.4124 13.8086 46.9219 12.4336 46.9219 10.6719C46.9219 8.8457 47.4518 7.39909 48.5117 6.33203C49.5716 5.26497 50.875 4.73145 52.4219 4.73145C54.026 4.73145 55.265 5.20768 56.1387 6.16016C57.0195 7.11263 57.46 8.40527 57.46 10.0381V11.4668ZM54.3125 9.38281C54.3125 7.80729 53.6751 7.01953 52.4004 7.01953C51.8561 7.01953 51.3835 7.24512 50.9824 7.69629C50.5885 8.14746 50.3486 8.70964 50.2627 9.38281H54.3125ZM66.6553 8.06152C66.2471 7.83952 65.7708 7.72852 65.2266 7.72852C64.4889 7.72852 63.9124 8.00065 63.4971 8.54492C63.0817 9.08203 62.874 9.81608 62.874 10.7471V16H59.4795V5H62.874V7.04102H62.917C63.4541 5.55143 64.4209 4.80664 65.8174 4.80664C66.1755 4.80664 66.4548 4.84961 66.6553 4.93555V8.06152Z" fill="white"/>
<path d="M82.124 16H78.3428L77.2471 12.5732H71.7686L70.6836 16H66.9238L72.5312 0.595703H76.6455L82.124 16ZM76.4521 9.90918L74.7979 4.73145C74.6761 4.34473 74.5902 3.88281 74.54 3.3457H74.4541C74.4183 3.79688 74.3288 4.24447 74.1855 4.68848L72.5098 9.90918H76.4521ZM87.5166 16H84.0469V0.595703H87.5166V16Z" fill="#FFB400"/>
</svg>
