<svg width="17" height="14" viewBox="0 0 17 14" fill="none" xmlns="http://www.w3.org/2000/svg">
<path d="M1 13.3203H16" stroke="#7B7B7B" stroke-linecap="round" stroke-linejoin="round"/>
<path d="M9.57031 13.3214V1.53571C9.57031 1.39363 9.51387 1.25737 9.41341 1.15691C9.31294 1.05644 9.17668 1 9.0346 1H2.60603C2.46395 1 2.32769 1.05644 2.22722 1.15691C2.12675 1.25737 2.07031 1.39363 2.07031 1.53571V13.3214" stroke="#7B7B7B" stroke-linecap="round" stroke-linejoin="round"/>
<path d="M14.9294 13.3209V5.82087C14.9294 5.67879 14.873 5.54253 14.7725 5.44206C14.672 5.3416 14.5358 5.28516 14.3937 5.28516H9.57227" stroke="#7B7B7B" stroke-linecap="round" stroke-linejoin="round"/>
<path d="M4.21289 3.67969H6.35575" stroke="#7B7B7B" stroke-linecap="round" stroke-linejoin="round"/>
<path d="M5.28516 7.96484H7.42801" stroke="#7B7B7B" stroke-linecap="round" stroke-linejoin="round"/>
<path d="M4.21289 10.6406H6.35575" stroke="#7B7B7B" stroke-linecap="round" stroke-linejoin="round"/>
<path d="M11.7148 10.6406H12.7863" stroke="#7B7B7B" stroke-linecap="round" stroke-linejoin="round"/>
<path d="M11.7148 7.96484H12.7863" stroke="#7B7B7B" stroke-linecap="round" stroke-linejoin="round"/>
</svg>
