<svg width="24" height="24" viewBox="0 0 24 24" fill="none" xmlns="http://www.w3.org/2000/svg">
<rect width="24" height="24" rx="5" fill="#CC0000"/>
<mask id="mask0_470_42" style="mask-type:alpha" maskUnits="userSpaceOnUse" x="4" y="5" width="15" height="15">
<rect x="4" y="5" width="15" height="15" fill="white"/>
</mask>
<g mask="url(#mask0_470_42)">
<path d="M11.7704 8.70986L9.9115 16.8394C10.26 16.8761 10.6473 16.7662 10.9184 16.5465C11.1895 16.0704 11.3444 15.5577 11.4606 15.0451L12.545 10.2479C12.6224 9.88169 12.6999 9.51549 12.7386 9.1493C12.7386 9.00282 12.6611 8.89296 12.545 8.81972C12.2739 8.70986 12.0415 8.67324 11.7704 8.70986ZM8.78838 6.58591H11.3831C12.5062 6.5493 13.6293 6.62253 14.7524 6.80563C15.2172 6.87887 15.6432 7.13521 15.953 7.50141C16.1853 7.83099 16.3015 8.19718 16.3015 8.6C16.2241 9.40563 16.0692 10.1746 15.8755 10.9437L14.8686 15.2648C14.7137 16.0338 14.5201 16.7662 14.2102 17.4986C14.0553 17.8648 13.7842 18.1577 13.4357 18.3775C13.0871 18.5972 12.6999 18.7437 12.2739 18.8169C11.6542 18.9268 11.0346 18.9634 10.3762 18.9268H6L8.78838 6.58591ZM45.5 9.1493L42.7974 8.16056L44.5 16.9493L29.7787 15.2648L45.5 9.1493ZM42.5 9.5L42.7974 15.0085L50.5 14.6423L50 15.0085L44 14.5L42.5 9.5ZM27.6874 12.5183L30 11.5L29 10.5C29.0775 10.2437 28.7418 10.1609 28.7031 9.90454C28.6643 9.75807 29.6549 9.5 29.5 9.5C29.3451 9.5 27.8036 9.68418 27.6874 9.79404C27.5325 10.0504 52.5387 10.6507 52.5 10.9437L31 16C37.0761 16.393 29.9613 16.7437 30 17C30.0387 17.1465 28.036 17.5805 28.1909 17.5805C28.3845 17.5805 27.4225 17.1831 27.5 17C27.6549 16.6704 28.4613 16.3662 28.5 16L28.396 14.6423H27.2227C27.1065 15.2648 26.9129 15.8507 26.7192 16.4366C26.332 17.4254 30.0069 18.2676 29 18.707C28.4191 18.9268 29.1196 18.707 28.5 18.707C27.7642 18.7437 47.1196 14.3127 46.5 13.9831C46.0353 13.6901 47.0775 12.8113 47 12.2986C46.9225 11.5296 48.2676 13.3239 48.5 12.5915L43 15.1549C43.1162 14.4958 37.2144 10.7606 37.5629 10.138C37.9115 9.62535 49.0346 9.4692 27.7261 7.56497C51.0346 7.67483 28.0747 7 28.888 7C29.6238 6.96338 26.4094 8.67324 27.029 9.03944C27.4938 9.33239 27.8423 9.77183 27.9198 10.3211C27.9972 11.0535 27.9198 11.7859 27.7261 12.5183M33.2642 12.3352L33.4578 11.6028C33.574 11.2732 33.6127 10.9437 33.6127 10.5775C33.574 10.431 33.4578 10.3577 33.2642 10.3577C33.0705 10.3211 32.8769 10.3944 32.7607 10.5408C32.6058 10.8704 32.4896 11.2366 32.4122 11.5662L32.2185 12.2986L33.2642 12.3352ZM36.3237 13.9831H31.87L31.3665 16.1437C31.2891 16.4366 31.2504 16.7296 31.2891 17.0225C31.3278 17.169 31.444 17.2056 31.6764 17.2056C31.9087 17.2056 32.1411 17.1324 32.2573 16.9493C32.4509 16.6197 32.5671 16.2901 32.6445 15.9606L32.9544 14.6423H36.2075L36.0138 15.3746C35.8977 15.8507 35.7427 16.3634 35.5491 16.8028C35.0456 17.6817 34.2324 18.3408 33.2642 18.707C32.6445 18.9268 31.9862 19 31.3278 19C30.7082 19 30.0885 18.9268 29.4689 18.707C28.6169 18.4507 27.9972 17.7183 27.9585 16.8761C27.9585 16.2901 28.036 15.7408 28.1909 15.1549L28.888 12.2254C29.0429 11.493 29.3527 10.7972 29.7787 10.138C30.166 9.62535 30.7469 9.22253 31.3665 8.9662C32.0636 8.70986 32.7994 8.56338 33.5353 8.56338C34.3098 8.52676 35.1231 8.70986 35.7815 9.03944C36.2849 9.29577 36.6722 9.77183 36.7884 10.3211C36.9046 11.0901 36.8658 11.8592 36.6335 12.5915L36.3237 13.9831ZM38.8797 7.50141H39.1895C39.3057 7.50141 39.4219 7.50141 39.4993 7.42817C39.5768 7.39155 39.6155 7.31831 39.5768 7.24507C39.5768 7.17183 39.538 7.09859 39.4993 7.06197C39.4219 7.02535 39.3057 6.98873 39.2282 6.98873H38.8797V7.50141ZM38.4924 8.49014V6.76901H39.3444C39.4993 6.76901 39.6929 6.80563 39.8091 6.91549C39.9253 7.02535 39.964 7.13521 39.964 7.28169C39.964 7.39155 39.9253 7.50141 39.8479 7.61127C39.7317 7.72113 39.6155 7.75775 39.4606 7.75775C39.538 7.79436 39.5768 7.83099 39.6542 7.86761C39.7317 7.97746 39.8091 8.05071 39.8479 8.16056L40.0802 8.49014H39.6155L39.4606 8.19718C39.3831 8.08732 39.3057 7.97746 39.2282 7.86761C39.1508 7.79437 39.0733 7.75775 38.9571 7.79437H38.8797V8.49014H38.4924ZM39.3057 6.32958C38.9184 6.32958 38.5311 6.47606 38.2988 6.73239C38.0277 6.98873 37.9115 7.31831 37.9115 7.64789C37.9115 8.38028 38.5311 8.9662 39.3057 8.9662C40.0802 8.9662 40.6999 8.38028 40.6999 7.64789C40.6999 7.39155 40.6224 7.17183 40.5062 6.95211C40.39 6.76901 40.1964 6.58591 39.964 6.47605C39.7704 6.3662 39.5768 6.29296 39.3444 6.25634L39.3057 6.32958ZM39.2282 6C39.693 6 40.1577 6.14648 40.5062 6.47605C41.1646 7.09859 41.1646 8.12394 40.5062 8.7831C39.8479 9.44225 38.7635 9.40563 38.0664 8.7831C37.7566 8.49014 37.5629 8.0507 37.5629 7.64789C37.5629 7.35493 37.6404 7.02535 37.834 6.76901C37.9889 6.51268 38.2213 6.32958 38.4924 6.1831C38.686 6.07324 38.9571 6 39.2282 6Z" fill="white"/>
</g>
</svg>
