<svg width="17" height="17" viewBox="0 0 17 17" fill="none" xmlns="http://www.w3.org/2000/svg">
<path d="M8.33334 7.5C8.11232 7.5 7.90036 7.5878 7.74408 7.74408C7.5878 7.90036 7.5 8.11232 7.5 8.33333V11.6667C7.5 11.8877 7.5878 12.0996 7.74408 12.2559C7.90036 12.4122 8.11232 12.5 8.33334 12.5C8.55435 12.5 8.76631 12.4122 8.92259 12.2559C9.07887 12.0996 9.16667 11.8877 9.16667 11.6667V8.33333C9.16667 8.11232 9.07887 7.90036 8.92259 7.74408C8.76631 7.5878 8.55435 7.5 8.33334 7.5ZM8.65 4.23333C8.44712 4.14999 8.21955 4.14999 8.01667 4.23333C7.91438 4.273 7.82092 4.33247 7.74167 4.40833C7.66806 4.48933 7.60887 4.58235 7.56667 4.68333C7.52002 4.78223 7.49719 4.89069 7.5 5C7.49937 5.10967 7.52039 5.21839 7.56186 5.31992C7.60333 5.42145 7.66444 5.5138 7.74167 5.59167C7.82267 5.66528 7.91568 5.72447 8.01667 5.76667C8.14292 5.81853 8.27997 5.8386 8.41579 5.82509C8.55161 5.81159 8.68203 5.76493 8.7956 5.68922C8.90916 5.61351 9.00239 5.51107 9.06709 5.39089C9.1318 5.27072 9.16599 5.13649 9.16667 5C9.1636 4.77936 9.07728 4.56803 8.925 4.40833C8.84575 4.33247 8.7523 4.273 8.65 4.23333ZM8.33334 0C6.68516 0 5.07399 0.488742 3.70358 1.40442C2.33318 2.3201 1.26507 3.62159 0.634341 5.1443C0.0036107 6.66702 -0.161417 8.34258 0.160126 9.95909C0.48167 11.5756 1.27534 13.0605 2.44078 14.2259C3.60622 15.3913 5.09108 16.185 6.70758 16.5065C8.32409 16.8281 9.99965 16.6631 11.5224 16.0323C13.0451 15.4016 14.3466 14.3335 15.2622 12.9631C16.1779 11.5927 16.6667 9.98151 16.6667 8.33333C16.6667 7.23898 16.4511 6.15535 16.0323 5.1443C15.6135 4.13326 14.9997 3.2146 14.2259 2.44078C13.4521 1.66696 12.5334 1.05313 11.5224 0.634337C10.5113 0.215548 9.42769 0 8.33334 0ZM8.33334 15C7.0148 15 5.72586 14.609 4.62954 13.8765C3.53321 13.1439 2.67872 12.1027 2.17414 10.8846C1.66956 9.66638 1.53753 8.32594 1.79477 7.03273C2.052 5.73952 2.68694 4.55164 3.61929 3.61929C4.55164 2.68694 5.73953 2.052 7.03274 1.79477C8.32594 1.53753 9.66639 1.66955 10.8846 2.17414C12.1027 2.67872 13.1439 3.5332 13.8765 4.62953C14.609 5.72586 15 7.01479 15 8.33333C15 10.1014 14.2976 11.7971 13.0474 13.0474C11.7971 14.2976 10.1014 15 8.33334 15Z" fill="#F44336"/>
</svg>
