<svg width="24" height="24" viewBox="0 0 24 24" fill="none" xmlns="http://www.w3.org/2000/svg">
<rect width="24" height="24" rx="5" fill="white"/>
<path d="M15.6484 12.3066V10.8906C15.6484 10.1484 15.5605 9.53971 15.3848 9.06445C15.2025 8.58919 14.8965 8.18555 14.4668 7.85352C14.0306 7.52148 13.5423 7.30013 13.002 7.18945V8.32227C13.3861 8.54362 13.6042 8.83984 13.6562 9.21094H13.002V12.3066H15.6484Z" fill="#00A264"/>
<path d="M11.6484 11.6934V13.1094C11.6484 13.8516 11.5605 14.4603 11.3848 14.9355C11.2025 15.4108 10.8965 15.8145 10.4668 16.1465C10.0306 16.4785 9.54232 16.6999 9.00195 16.8105V15.6777C9.38607 15.4564 9.60417 15.1602 9.65625 14.7891H9.00195V11.6934H11.6484Z" fill="#00A264"/>
</svg>
