<svg width="88" height="17" viewBox="0 0 88 17" fill="none" xmlns="http://www.w3.org/2000/svg">
<path d="M12.3965 1.10059L11.2471 3.41016C10.624 2.78711 9.62142 2.47559 8.23926 2.47559C6.92871 2.47559 5.85449 3.02702 5.0166 4.12988C4.17871 5.22559 3.75977 6.61491 3.75977 8.29785C3.75977 9.98079 4.14648 11.3164 4.91992 12.3047C5.70052 13.293 6.73893 13.7871 8.03516 13.7871C9.51758 13.7871 10.6777 13.2572 11.5156 12.1973L12.8154 14.4531C11.6768 15.6634 10.0081 16.2686 7.80957 16.2686C5.611 16.2686 3.90299 15.5452 2.68555 14.0986C1.4681 12.652 0.859375 10.679 0.859375 8.17969C0.859375 5.85221 1.53255 3.90788 2.87891 2.34668C4.23242 0.77832 5.96191 -0.00585938 8.06738 -0.00585938C9.87207 -0.00585938 11.3151 0.362956 12.3965 1.10059ZM21.3232 14.8506C21.0798 15.2516 20.6536 15.5811 20.0449 15.8389C19.4434 16.0895 18.8132 16.2148 18.1543 16.2148C16.9154 16.2148 15.9414 15.9069 15.2324 15.291C14.5234 14.668 14.1689 13.7871 14.1689 12.6484C14.1689 11.3164 14.6667 10.2744 15.6621 9.52246C16.6647 8.77051 18.0863 8.39453 19.9268 8.39453C20.2419 8.39453 20.6143 8.44824 21.0439 8.55566C21.0439 7.20215 20.1882 6.52539 18.4766 6.52539C17.4668 6.52539 16.6217 6.69368 15.9414 7.03027L15.3613 4.94629C16.2852 4.50228 17.3844 4.28027 18.6592 4.28027C20.4137 4.28027 21.6992 4.68132 22.5156 5.4834C23.332 6.27832 23.7402 7.78939 23.7402 10.0166V12.4766C23.7402 14.0091 24.0482 14.9723 24.6641 15.3662C24.4421 15.7529 24.195 15.9893 23.9229 16.0752C23.6507 16.1683 23.3392 16.2148 22.9883 16.2148C22.6016 16.2148 22.2542 16.0716 21.9463 15.7852C21.6383 15.4987 21.4307 15.1872 21.3232 14.8506ZM21.0654 10.5859C20.6071 10.4928 20.2633 10.4463 20.0342 10.4463C17.9144 10.4463 16.8545 11.141 16.8545 12.5303C16.8545 13.5615 17.4525 14.0771 18.6484 14.0771C20.2598 14.0771 21.0654 13.2715 21.0654 11.6602V10.5859ZM33.3008 6.99805C32.821 6.68294 32.2946 6.52539 31.7217 6.52539C31.0986 6.52539 30.5436 6.80827 30.0566 7.37402C29.5768 7.93978 29.3369 8.63086 29.3369 9.44727V16H26.6514V4.49512H29.3369V5.54785C30.0889 4.7028 31.0879 4.28027 32.334 4.28027C33.2507 4.28027 33.9525 4.41992 34.4395 4.69922L33.3008 6.99805ZM46.3311 11.0693H38.1133C38.1634 11.986 38.4785 12.6986 39.0586 13.207C39.6387 13.7155 40.4193 13.9697 41.4004 13.9697C42.625 13.9697 43.556 13.651 44.1934 13.0137L45.2354 15.0654C44.29 15.8317 42.8792 16.2148 41.0029 16.2148C39.2484 16.2148 37.859 15.7028 36.835 14.6787C35.818 13.6475 35.3096 12.2116 35.3096 10.3711C35.3096 8.55924 35.8682 7.09115 36.9854 5.9668C38.1097 4.84245 39.4561 4.28027 41.0244 4.28027C42.693 4.28027 44.0322 4.77799 45.042 5.77344C46.0518 6.76888 46.5566 8.03646 46.5566 9.57617C46.5566 9.9056 46.4814 10.4033 46.3311 11.0693ZM38.21 9.0498H43.8604C43.6742 7.36686 42.7432 6.52539 41.0674 6.52539C39.5348 6.52539 38.5824 7.36686 38.21 9.0498ZM58.9854 11.0693H50.7676C50.8177 11.986 51.1328 12.6986 51.7129 13.207C52.293 13.7155 53.0736 13.9697 54.0547 13.9697C55.2793 13.9697 56.2103 13.651 56.8477 13.0137L57.8896 15.0654C56.9443 15.8317 55.5335 16.2148 53.6572 16.2148C51.9027 16.2148 50.5133 15.7028 49.4893 14.6787C48.4723 13.6475 47.9639 12.2116 47.9639 10.3711C47.9639 8.55924 48.5225 7.09115 49.6396 5.9668C50.764 4.84245 52.1104 4.28027 53.6787 4.28027C55.3473 4.28027 56.6865 4.77799 57.6963 5.77344C58.7061 6.76888 59.2109 8.03646 59.2109 9.57617C59.2109 9.9056 59.1357 10.4033 58.9854 11.0693ZM50.8643 9.0498H56.5146C56.3285 7.36686 55.3975 6.52539 53.7217 6.52539C52.1891 6.52539 51.2367 7.36686 50.8643 9.0498ZM68.0195 6.99805C67.5397 6.68294 67.0133 6.52539 66.4404 6.52539C65.8174 6.52539 65.2624 6.80827 64.7754 7.37402C64.2956 7.93978 64.0557 8.63086 64.0557 9.44727V16H61.3701V4.49512H64.0557V5.54785C64.8076 4.7028 65.8066 4.28027 67.0527 4.28027C67.9694 4.28027 68.6712 4.41992 69.1582 4.69922L68.0195 6.99805Z" fill="#F6F6FD"/>
<path d="M80.126 16L78.9766 12.8096H73.584L72.4883 16H69.3838L75.6572 0.0478516H76.8818L83.209 16H80.126ZM76.2695 4.86035L74.3789 10.6719H78.1602L76.2695 4.86035ZM84.9385 16V0.262695H87.7314V16H84.9385Z" fill="#FFB400"/>
</svg>
