<svg width="538" height="800" viewBox="0 0 538 800" fill="none" xmlns="http://www.w3.org/2000/svg">
<path d="M363 343.625C283.075 384.625 193.6 308.2 221.475 222.8C249.475 137.375 366.8 128.625 407.05 209C432.175 258.325 412.525 318.725 363.025 343.725L363 343.625ZM255.725 19C338 -10.925 432.15 -9.37497 502.6 51.825C517.425 64.05 529.175 79.7 536.7 97.525C543.725 120.425 511.7 95.15 507.4 91.925C485.125 76.7 461.075 64.45 435.675 55.325C296.875 12.9 165.6 90.225 84.5003 210.525C51.4253 263.525 26.1753 321.1 9.5003 381.35C7.9253 388.775 5.60031 395.95 2.47531 402.85C-1.14969 409.625 0.775302 384.475 0.775302 383.725C3.7753 358.6 8.6003 333.6 15.1003 309.1C52.7253 178 136.075 68.875 255.725 18.875V19ZM256.9 718.875V426.7C265.225 427.6 273.025 428 281.375 428C319.275 428.125 356.375 417.7 388.8 398.175V718.75C388.8 746.25 383.7 766.425 371.325 779.725C358.95 793.25 341.4 800.7 323.025 800.025C304.925 800.7 287.5 793.25 275.35 779.725C263.125 766.3 256.75 746 256.75 718.9L256.9 718.875Z" fill="#003A9B"/>
</svg>
