<svg width="15" height="15" viewBox="0 0 15 15" fill="none" xmlns="http://www.w3.org/2000/svg">
<path d="M13.4582 4.16797H1.54166C1.24251 4.16797 1 4.41048 1 4.70963V13.3762C1 13.6754 1.24251 13.9179 1.54166 13.9179H13.4582C13.7574 13.9179 13.9999 13.6754 13.9999 13.3762V4.70963C13.9999 4.41048 13.7574 4.16797 13.4582 4.16797Z" stroke="#7B7B7B" stroke-linecap="round" stroke-linejoin="round"/>
<path d="M10.2076 3.16665V2.08332C10.2076 1.79601 10.0935 1.52046 9.89034 1.3173C9.68718 1.11414 9.41163 1 9.12431 1H5.87434C5.58702 1 5.31148 1.11414 5.10831 1.3173C4.90515 1.52046 4.79102 1.79601 4.79102 2.08332V3.16665" stroke="#7B7B7B" stroke-linecap="round" stroke-linejoin="round"/>
<path d="M14 7.84375C12.0245 8.98669 9.78182 9.58681 7.49951 9.58322C5.21758 9.58681 2.97528 8.9869 1 7.84432" stroke="#7B7B7B" stroke-linecap="round" stroke-linejoin="round"/>
<path d="M6.6875 7.41797H8.31249" stroke="#7B7B7B" stroke-linecap="round" stroke-linejoin="round"/>
</svg>
