<svg width="24" height="24" viewBox="0 0 24 24" fill="none" xmlns="http://www.w3.org/2000/svg">
<rect width="24" height="24" rx="5" fill="#4339F2"/>
<path d="M6 7.39394C6 6.98989 6.13514 6.65656 6.40541 6.39394C6.67567 6.13131 7.02703 6 7.45946 6C7.88417 6 8.2278 6.12928 8.49035 6.38788C8.76061 6.65455 8.89575 7.00201 8.89575 7.4303C8.89575 7.81818 8.76448 8.14141 8.50193 8.4C8.23166 8.66667 7.87645 8.8 7.43629 8.8H7.42471C7 8.8 6.65637 8.66667 6.39382 8.4C6.13127 8.13333 6 7.79798 6 7.39394ZM6.15058 18V9.90303H8.72201V18H6.15058ZM10.1467 18H12.7181V13.4788C12.7181 13.196 12.749 12.9778 12.8108 12.8242C12.9189 12.5495 13.083 12.3172 13.3031 12.1273C13.5232 11.9374 13.7992 11.8424 14.1313 11.8424C14.9961 11.8424 15.4286 12.4525 15.4286 13.6727V18H18V13.3576C18 12.1616 17.7297 11.2545 17.1892 10.6364C16.6486 10.0182 15.9344 9.70909 15.0463 9.70909C14.0502 9.70909 13.2741 10.1576 12.7181 11.0545V11.0788H12.7066L12.7181 11.0545V9.90303H10.1467C10.1622 10.1616 10.1699 10.9656 10.1699 12.3152C10.1699 13.6646 10.1622 15.5596 10.1467 18Z" fill="white"/>
</svg>
