<svg width="72" height="72" viewBox="0 0 72 72" fill="none" xmlns="http://www.w3.org/2000/svg">
<g filter="url(#filter0_d_334_54)">
<path d="M8 10C8 7.79086 9.79086 6 12 6H64V62H12C9.79086 62 8 60.2091 8 58V10Z" fill="#0145FD"/>
<path d="M47.2279 27.4423C48.8472 26.6059 49.5047 24.5871 48.3633 23.1662C46.8097 21.2324 44.8307 19.6623 42.5633 18.5883C39.2953 17.0403 35.6092 16.6087 32.0719 17.36C28.5347 18.1113 25.3423 20.0038 22.9855 22.7465C20.6288 25.4892 19.2383 28.9301 19.0279 32.5401C18.8176 36.1501 19.799 39.7293 21.8212 42.7271C23.8434 45.725 26.7944 47.9755 30.2204 49.1325C33.6464 50.2896 37.3577 50.2891 40.7834 49.1312C43.1602 48.3279 45.3082 46.9982 47.0759 45.2579C48.3747 43.9793 47.9561 41.8978 46.4449 40.879C44.9337 39.8602 42.9032 40.3208 41.446 41.4155C40.6099 42.0436 39.674 42.5394 38.6701 42.8787C36.6146 43.5735 34.3879 43.5738 32.3323 42.8795C30.2766 42.1853 28.506 40.835 27.2927 39.0363C26.0794 37.2376 25.4905 35.0901 25.6168 32.9241C25.743 30.7581 26.5773 28.6935 27.9913 27.0479C29.4054 25.4023 31.3208 24.2668 33.4432 23.816C35.5655 23.3652 37.7772 23.6242 39.738 24.553C40.6957 25.0066 41.5677 25.6078 42.3252 26.3288C43.6454 27.5852 45.6086 28.2787 47.2279 27.4423Z" fill="#FFB400"/>
<path d="M47.2281 27.4426C48.8474 26.6062 49.505 24.5875 48.3636 23.1666C47.4137 21.9842 46.302 20.9342 45.057 20.0496C42.9115 18.5251 40.4324 17.536 37.8267 17.1649C35.221 16.7937 32.5644 17.0513 30.0785 17.9161C27.5926 18.7809 25.3497 20.2279 23.537 22.1361C21.7243 24.0444 20.3944 26.3586 19.6584 28.8856C18.9223 31.4126 18.8014 34.079 19.3058 36.6622C19.8103 39.2454 20.9253 41.6704 22.5579 43.7349C23.5053 44.9328 24.6109 45.9891 25.8405 46.877C27.3181 47.944 29.3005 47.1837 30.0526 45.5235C30.8047 43.8634 30.0114 41.9384 28.6888 40.6845C28.3473 40.3608 28.0284 40.0122 27.7348 39.6409C26.7552 38.4023 26.0862 36.9472 25.7835 35.3973C25.4809 33.8474 25.5534 32.2475 25.995 30.7314C26.4367 29.2152 27.2346 27.8266 28.3222 26.6817C29.4098 25.5367 30.7556 24.6686 32.2471 24.1497C33.7386 23.6308 35.3326 23.4762 36.896 23.6989C38.4594 23.9216 39.9469 24.5151 41.2342 25.4298C41.6201 25.7039 41.9846 26.0046 42.3254 26.329C43.6456 27.5855 45.6088 28.2789 47.2281 27.4426Z" fill="white"/>
</g>
<defs>
<filter id="filter0_d_334_54" x="0" y="0" width="72" height="72" filterUnits="userSpaceOnUse" color-interpolation-filters="sRGB">
<feFlood flood-opacity="0" result="BackgroundImageFix"/>
<feColorMatrix in="SourceAlpha" type="matrix" values="0 0 0 0 0 0 0 0 0 0 0 0 0 0 0 0 0 0 127 0" result="hardAlpha"/>
<feOffset dy="2"/>
<feGaussianBlur stdDeviation="4"/>
<feComposite in2="hardAlpha" operator="out"/>
<feColorMatrix type="matrix" values="0 0 0 0 0 0 0 0 0 0 0 0 0 0 0 0 0 0 0.08 0"/>
<feBlend mode="normal" in2="BackgroundImageFix" result="effect1_dropShadow_334_54"/>
<feBlend mode="normal" in="SourceGraphic" in2="effect1_dropShadow_334_54" result="shape"/>
</filter>
</defs>
</svg>
