<svg width="221" height="195" viewBox="0 0 221 195" fill="none" xmlns="http://www.w3.org/2000/svg">
<path d="M110.5 194.082C171.527 194.082 221 191.193 221 187.629C221 184.065 171.527 181.176 110.5 181.176C49.4725 181.176 0 184.065 0 187.629C0 191.193 49.4725 194.082 110.5 194.082Z" fill="#F5F5F5"/>
<path d="M201.588 92.1266H65.3635C62.249 92.1266 59.8588 89.5785 60.052 86.464L65.0438 6.0611C65.237 2.94652 67.9435 0.398438 71.0581 0.398438H207.282C210.396 0.398438 212.787 2.94652 212.593 6.0611L207.601 86.464C207.409 89.5785 204.702 92.1266 201.588 92.1266Z" fill="#407BFF"/>
<path opacity="0.8" d="M201.588 92.1266H65.3635C62.249 92.1266 59.8588 89.5785 60.052 86.464L65.0438 6.0611C65.237 2.94652 67.9435 0.398438 71.0581 0.398438H207.282C210.396 0.398438 212.787 2.94652 212.593 6.0611L207.601 86.464C207.409 89.5785 204.702 92.1266 201.588 92.1266Z" fill="white"/>
<path opacity="0.4" d="M82.8344 23.568H66.6135C65.7261 23.568 65.0519 22.8488 65.1066 21.9614L65.5677 14.5343C65.623 13.647 66.3866 12.9277 67.274 12.9277H83.4955L82.8344 23.568Z" fill="white"/>
<path d="M207.196 1.81445H88.4328C86.0871 1.81445 84.0673 3.71626 83.922 6.06145L82.7764 24.5107H66.5555C65.6682 24.5107 64.9045 25.2299 64.8492 26.1173L64.4172 33.0725C64.3619 33.9599 65.0367 34.6791 65.9241 34.6791H82.1455L78.9306 86.4643C78.7847 88.8101 80.5686 90.7113 82.9143 90.7113H201.678C204.023 90.7113 206.042 88.8095 206.188 86.4643L211.18 6.06145C211.325 3.71569 209.542 1.81445 207.196 1.81445Z" fill="white"/>
<path opacity="0.4" d="M81.4555 45.7914H65.2346C64.3472 45.7914 63.673 45.0722 63.7277 44.1849L64.1597 37.2296C64.215 36.3423 64.9787 35.623 65.866 35.623H82.0875L81.4555 45.7914Z" fill="white"/>
<path opacity="0.4" d="M80.7666 56.9008H64.5451C63.6578 56.9008 62.9836 56.1816 63.0383 55.2942L63.4703 48.339C63.5255 47.4517 64.2892 46.7324 65.1766 46.7324H81.398L80.7666 56.9008Z" fill="white"/>
<path opacity="0.4" d="M80.0752 68.0141H63.8537C62.9664 68.0141 62.2921 67.2949 62.3469 66.4075L62.7788 59.4523C62.8341 58.5649 63.5978 57.8457 64.4852 57.8457H80.7066L80.0752 68.0141Z" fill="white"/>
<path opacity="0.4" d="M79.3851 79.1274H63.1643C62.2769 79.1274 61.6027 78.4082 61.6574 77.5208L62.0894 70.5656C62.1447 69.6782 62.9084 68.959 63.7957 68.959H80.0172L79.3851 79.1274Z" fill="white"/>
<path opacity="0.2" d="M66.4024 33.3811C66.2132 33.3811 66.0422 33.3093 65.9197 33.1794C65.7971 33.0483 65.7356 32.8716 65.7476 32.6813L66.1271 26.5746C66.1528 26.1575 66.5272 25.8047 66.9438 25.8047H80.6941C80.8833 25.8047 81.0543 25.8765 81.1768 26.0064C81.2994 26.1369 81.3603 26.3136 81.3489 26.504L80.9694 32.6106C80.9437 33.0278 80.5699 33.3805 80.1527 33.3805H66.4024V33.3811Z" fill="#407BFF"/>
<path opacity="0.3" d="M112.192 11.3943H92.582C91.0826 11.3943 89.9314 10.1673 90.0248 8.66788C90.1177 7.16843 91.4211 5.94141 92.9206 5.94141H112.531C114.03 5.94141 115.181 7.16843 115.088 8.66788C114.995 10.1673 113.692 11.3943 112.192 11.3943Z" fill="#407BFF"/>
<path d="M205.65 8.66788C205.556 10.1736 204.26 11.3943 202.754 11.3943C201.248 11.3943 200.103 10.1736 200.197 8.66788C200.29 7.16216 201.587 5.94141 203.092 5.94141C204.598 5.94141 205.743 7.16216 205.65 8.66788Z" fill="#407BFF"/>
<path opacity="0.4" d="M191.114 55.3811H96.8192C91.9631 55.3811 88.2584 53.9512 88.5602 52.1939L91.4051 35.6111C91.7068 33.8534 95.9018 32.4238 100.758 32.4238H195.052C199.908 32.4238 203.614 33.8538 203.312 35.6111L200.467 52.1939C200.166 53.9512 195.97 55.3811 191.114 55.3811ZM100.734 32.563C96.0903 32.563 92.0773 33.9304 91.7895 35.6111L88.9446 52.1939C88.6558 53.8745 92.1999 55.242 96.8433 55.242H191.138C195.782 55.242 199.794 53.8745 200.083 52.1939L202.928 35.6111C203.216 33.9304 199.673 32.563 195.028 32.563H100.734Z" fill="#407BFF"/>
<path d="M115.684 65.5045H85.8791C85.593 65.5045 85.3759 65.2725 85.3936 64.9864L85.5235 62.8891C85.5412 62.603 85.7874 62.3711 86.0735 62.3711H115.878L115.684 65.5045Z" fill="#407BFF"/>
<path opacity="0.5" d="M124.573 40.6334H94.7678C94.4817 40.6334 94.2646 40.4014 94.2823 40.1153L94.4122 38.018C94.4299 37.732 94.6761 37.5 94.9622 37.5H124.767L124.573 40.6334Z" fill="#407BFF"/>
<path opacity="0.5" d="M124.573 50.1998H94.7678C94.4817 50.1998 94.2646 49.9678 94.2823 49.6817L94.4122 47.5845C94.4299 47.2984 94.6761 47.0664 94.9622 47.0664H124.767L124.573 50.1998Z" fill="#407BFF"/>
<path opacity="0.2" d="M115.326 65.9043H198.006C198.635 65.9043 199.176 65.6211 199.215 65.2717L199.501 62.7107C199.54 62.3614 199.062 62.0781 198.433 62.0781H115.753L115.326 65.9043Z" fill="#407BFF"/>
<path opacity="0.2" d="M123.936 41.0332H193.462C193.991 41.0332 194.446 40.75 194.478 40.4006L194.719 37.8396C194.751 37.4903 194.35 37.207 193.821 37.207H124.295L123.936 41.0332Z" fill="#407BFF"/>
<path opacity="0.2" d="M123.936 50.5997H193.462C193.991 50.5997 194.446 50.3164 194.478 49.9671L194.719 47.406C194.751 47.0567 194.35 46.7734 193.821 46.7734H124.295L123.936 50.5997Z" fill="#407BFF"/>
<path d="M135.926 73.7838H85.3635C85.0774 73.7838 84.8603 73.5518 84.878 73.2657L85.0079 71.1684C85.0256 70.8823 85.2718 70.6504 85.5579 70.6504H136.121L135.926 73.7838Z" fill="#407BFF"/>
<path opacity="0.2" d="M135.414 73.5572H196.095C197.125 73.5572 198.012 73.3447 198.075 73.0827L198.543 71.1619C198.607 70.8999 197.825 70.6875 196.795 70.6875H136.114L135.414 73.5572Z" fill="#407BFF"/>
<path d="M91.2155 82.1646H85.2089C84.9195 82.1646 84.6999 81.9521 84.7178 81.6906L84.8498 79.7695C84.8677 79.5074 85.1167 79.2949 85.406 79.2949H91.4127L91.2155 82.1646Z" fill="#407BFF"/>
<path opacity="0.2" d="M90.4551 82.1646H198.307C198.809 82.1646 199.24 81.9521 199.271 81.6906L199.5 79.7695C199.531 79.5074 199.151 79.2949 198.649 79.2949H90.796L90.4551 82.1646Z" fill="#407BFF"/>
<path d="M31.5867 39.2098L31.0088 41.9875L30.4406 44.8337C30.0668 46.7286 29.7453 48.6219 29.4535 50.4787C29.3099 51.4088 29.1948 52.3269 29.0962 53.2319C28.9856 54.1364 28.9121 55.0169 28.8671 55.8632C28.8169 56.709 28.8312 57.5143 28.8591 58.1908C28.8802 58.8575 29.0033 59.4269 28.9765 59.4907L28.5958 58.8348C28.422 58.6621 28.1114 58.5059 28.059 58.5794C27.9991 58.6353 28.2066 58.7846 28.5702 58.8798C28.9309 58.9761 29.4421 59.0462 30.0024 59.0764C30.5689 59.1038 31.1889 59.0758 31.8386 59.0302C33.142 58.9419 34.54 58.7231 35.9608 58.4603C36.6715 58.3247 37.3941 58.1868 38.1134 58.0243L40.2454 57.5621L40.5292 57.5006C42.1427 57.1507 43.7344 58.1754 44.0844 59.7888C44.3408 60.9725 43.8558 62.1448 42.9434 62.8236L41.8816 63.6112L40.8284 64.3264C40.1155 64.7818 39.39 65.2263 38.6394 65.6367C37.1371 66.4613 35.555 67.1914 33.8145 67.7927C32.942 68.0902 32.0244 68.3364 31.0402 68.5364C30.0497 68.7302 28.9953 68.8749 27.8002 68.8476C26.6119 68.8208 25.2652 68.6652 23.7783 68.081C22.3005 67.5231 20.7242 66.3565 19.6778 64.8855C19.5661 64.7282 19.4669 64.5652 19.3814 64.3983L19.2971 64.2296C18.3989 62.4452 18.0929 60.9953 17.8404 59.648C17.6005 58.3042 17.523 57.068 17.4762 55.8763C17.4358 54.6846 17.4386 53.5277 17.4791 52.3993C17.5332 51.272 17.6102 50.1607 17.7139 49.0676C17.9099 46.878 18.2331 44.7442 18.6024 42.6315C18.7979 41.5772 18.9928 40.5257 19.2299 39.4816C19.3478 38.959 19.4618 38.4364 19.5912 37.9132L20.0089 36.2987C20.8342 33.1083 24.0895 31.1905 27.2799 32.0158C30.3728 32.8159 32.2695 35.8991 31.6306 38.9938L31.5867 39.2098Z" fill="#407BFF"/>
<path opacity="0.2" d="M31.5867 39.2098L31.0088 41.9875L30.4406 44.8337C30.0668 46.7286 29.7453 48.6219 29.4535 50.4787C29.3099 51.4088 29.1948 52.3269 29.0962 53.2319C28.9856 54.1364 28.9121 55.0169 28.8671 55.8632C28.8169 56.709 28.8312 57.5143 28.8591 58.1908C28.8802 58.8575 29.0033 59.4269 28.9765 59.4907L28.5958 58.8348C28.422 58.6621 28.1114 58.5059 28.059 58.5794C27.9991 58.6353 28.2066 58.7846 28.5702 58.8798C28.9309 58.9761 29.4421 59.0462 30.0024 59.0764C30.5689 59.1038 31.1889 59.0758 31.8386 59.0302C33.142 58.9419 34.54 58.7231 35.9608 58.4603C36.6715 58.3247 37.3941 58.1868 38.1134 58.0243L40.2454 57.5621L40.5292 57.5006C42.1427 57.1507 43.7344 58.1754 44.0844 59.7888C44.3408 60.9725 43.8558 62.1448 42.9434 62.8236L41.8816 63.6112L40.8284 64.3264C40.1155 64.7818 39.39 65.2263 38.6394 65.6367C37.1371 66.4613 35.555 67.1914 33.8145 67.7927C32.942 68.0902 32.0244 68.3364 31.0402 68.5364C30.0497 68.7302 28.9953 68.8749 27.8002 68.8476C26.6119 68.8208 25.2652 68.6652 23.7783 68.081C22.3005 67.5231 20.7242 66.3565 19.6778 64.8855C19.5661 64.7282 19.4669 64.5652 19.3814 64.3983L19.2971 64.2296C18.3989 62.4452 18.0929 60.9953 17.8404 59.648C17.6005 58.3042 17.523 57.068 17.4762 55.8763C17.4358 54.6846 17.4386 53.5277 17.4791 52.3993C17.5332 51.272 17.6102 50.1607 17.7139 49.0676C17.9099 46.878 18.2331 44.7442 18.6024 42.6315C18.7979 41.5772 18.9928 40.5257 19.2299 39.4816C19.3478 38.959 19.4618 38.4364 19.5912 37.9132L20.0089 36.2987C20.8342 33.1083 24.0895 31.1905 27.2799 32.0158C30.3728 32.8159 32.2695 35.8991 31.6306 38.9938L31.5867 39.2098Z" fill="black"/>
<path d="M17.1652 184.975C17.1652 184.975 11.7704 180.081 11.8878 178.536L7.40434 176.24L4.73828 180.846L7.21513 182.231L7.88819 182.025L8.33957 182.807C10.5753 183.952 15.4521 186.175 17.1584 186.112C17.4873 185.373 17.1652 184.975 17.1652 184.975Z" fill="#263238"/>
<path d="M17.5481 127.441C20.8092 104.094 19.7446 89.9004 23.1681 78.3932L44.3694 76.6875C44.3694 76.6875 34.9733 113.728 30.6647 129.152C26.3396 144.635 12.8663 179.544 12.8663 179.544L6.96484 176.523C6.96484 176.523 11.8074 145.502 17.5481 127.441Z" fill="#263238"/>
<path opacity="0.2" d="M34.8422 93.9551C33.3986 97.2919 30.5843 118.705 30.5957 129.397C30.6185 129.318 30.6413 129.233 30.6641 129.153C32.1772 123.734 34.3218 115.64 36.4653 107.422L34.8422 93.9551Z" fill="black"/>
<path d="M51.2258 185.744C51.2258 185.744 42.4321 183.748 42.0291 182.318H36.4497L35.9863 187.633H39.0872L39.66 187.143L40.3502 187.633C42.8623 187.633 50.1105 187.654 51.6704 186.723C51.6829 185.919 51.2258 185.744 51.2258 185.744Z" fill="#263238"/>
<path d="M36.337 128.097C31.6797 96.4573 31.6797 76.8717 31.6797 76.8717L52.4268 76.5371C52.4268 76.5371 49.9357 114.266 49.0695 130.069C48.1707 146.5 43.0409 182.661 43.0409 182.661H35.8093C35.8093 182.661 34.1537 148.411 36.337 128.097Z" fill="#263238"/>
<path d="M34.0831 17.4766C33.0989 23.6784 31.3071 27.0112 30.1074 30.0939C32.2007 32.0396 36.6808 34.4543 41.2025 34.3887C45.7242 34.3232 44.8973 31.2651 43.6845 29.6898C40.4445 28.0553 40.3186 26.4025 41.1107 24.9498L34.0831 17.4766Z" fill="#FFC2BD"/>
<path d="M26.332 30.9717C26.332 30.9717 29.2175 27.579 30.3545 27.0108C31.4915 26.4426 40.1165 27.6086 42.1534 27.9876C44.1903 28.3666 46.6665 31.398 46.6665 31.398L26.332 30.9717Z" fill="#263238"/>
<path d="M48.3657 16.9552C48.2739 17.3639 48.417 17.7417 48.6848 17.7993C48.9527 17.8568 49.2445 17.5724 49.3362 17.1638C49.428 16.7552 49.2849 16.3773 49.0171 16.3198C48.7487 16.2628 48.4574 16.5472 48.3657 16.9552Z" fill="#263238"/>
<path d="M48.2112 17.5195C48.2112 17.5195 48.6135 20.0767 49.384 21.4348C48.5075 21.9535 47.3438 21.3796 47.3438 21.3796L48.2112 17.5195Z" fill="#FFC2BD"/>
<path d="M49.7808 14.604C49.7141 14.6473 49.6274 14.6576 49.5494 14.6234C48.5583 14.1902 47.81 14.6644 47.7787 14.6844C47.6652 14.7584 47.5136 14.7265 47.4401 14.6125C47.3666 14.4986 47.3979 14.347 47.5108 14.2717C47.5524 14.2455 48.5047 13.6266 49.746 14.1697C49.8697 14.2239 49.9261 14.3692 49.8719 14.4946C49.8526 14.5413 49.8201 14.5783 49.7808 14.604Z" fill="#263238"/>
<path d="M34.8038 12.7963C33.9859 17.8799 33.2479 20.8161 35.2112 23.9387C38.1651 28.6353 44.8946 27.6756 47.221 22.9254C49.3149 18.6505 50.3008 11.0546 45.8219 7.99706C41.4102 4.98564 35.6221 7.7121 34.8038 12.7963Z" fill="#FFC2BD"/>
<path d="M44.0387 17.6629C48.1546 18.5497 46.9555 13.4655 45.9741 12.9594C48.4435 14.4434 50.086 12.724 49.9373 11.1727C51.8271 10.8564 51.7325 7.72188 50.4342 7.65805C49.6113 5.50492 45.7758 3.70057 45.0656 5.03018C42.994 2.624 37.4579 3.03548 38.2626 4.77714C36.1551 4.36566 31.6784 4.55544 33.1784 7.72188C29.9806 8.13336 30.1311 13.6068 32.2204 14.1767C30.0359 15.3849 32.1497 19.5105 33.0895 22.098C34.011 24.6341 43.422 22.3806 44.0387 17.6629Z" fill="#263238"/>
<path d="M41.6957 17.1436C41.5077 18.3598 41.8388 19.5048 42.3722 20.2531C43.1747 21.3787 44.4171 20.6783 44.8981 19.307C45.3312 18.0726 45.4355 15.9998 44.2911 15.3786C43.1633 14.7665 41.9106 15.7525 41.6957 17.1436Z" fill="#FFC2BD"/>
<path d="M26.6237 30.4001C33.633 29.5361 43.5752 29.6153 50.1754 30.7666C53.5361 31.3524 56.054 34.1587 56.331 37.5594C57.1505 47.6269 54.9233 65.2287 53.0004 82.9444C37.4697 88.1552 21.7047 82.8743 21.7047 82.8743C21.3582 79.2993 23.284 67.5898 24.4836 61.3367C23.6014 54.8813 21.3639 47.4895 20.0999 38.9169C19.4872 34.7537 22.4479 30.9147 26.6237 30.4001Z" fill="#407BFF"/>
<path opacity="0.2" d="M47.7168 44.5C48.774 50.565 52.1336 57.7898 55.2032 62.5708C55.6238 58.3814 55.9766 54.3908 56.2034 50.7132L47.7168 44.5Z" fill="black"/>
<path d="M99.0634 30.4508C94.2516 27.5898 88.031 29.1708 85.1695 33.9826C82.4122 38.6188 83.7897 44.555 88.1985 47.5419C87.1835 48.9103 84.22 52.9327 83.3001 54.4795C82.1848 56.3556 81.5898 58.0415 82.3769 58.5094C83.1634 58.9773 84.3613 57.6494 85.4766 55.7738C86.3959 54.2276 88.5148 49.703 89.2324 48.1574C93.9621 50.6069 99.8345 48.981 102.592 44.3436C105.453 39.5307 103.875 33.3118 99.0634 30.4508ZM101.496 43.691C98.995 47.8981 93.5586 49.2768 89.3549 46.7777C85.1478 44.2763 83.7635 38.8411 86.2648 34.634C88.7662 30.4269 94.2026 29.0477 98.4097 31.5496C102.613 34.0492 103.998 39.4845 101.496 43.691Z" fill="#407BFF"/>
<path opacity="0.2" d="M101.909 43.9378C99.2712 48.3734 93.539 49.8278 89.1068 47.192C84.6711 44.5544 83.211 38.8234 85.8486 34.3877C88.4861 29.9521 94.2189 28.4977 98.6545 31.1352C103.087 33.7705 104.546 39.5016 101.909 43.9378Z" fill="#407BFF"/>
<path d="M87.375 52.8069L86.1412 51.7121C85.6773 51.3007 85.0429 51.1382 84.4383 51.2773L81.6126 51.9258C80.4831 52.1852 79.549 52.9756 79.1062 54.0465L78.832 54.7093C80.7544 56.6647 84.2724 57.3617 84.2724 57.3617L85.2532 57.6717C86.1269 57.947 87.0143 57.5121 87.2918 56.6715L87.9313 54.7361C88.1524 54.0676 87.9313 53.2999 87.375 52.8069Z" fill="#FFC2BD"/>
<path d="M56.0547 35.4956L57.2054 37.9958L58.4079 40.5479C59.2121 42.2439 60.0595 43.9058 60.9093 45.5187C61.3379 46.3228 61.7784 47.1076 62.2292 47.8604C62.6686 48.6213 63.1211 49.3508 63.5776 50.0227C64.029 50.6957 64.5054 51.3038 64.9152 51.7997C65.3147 52.2926 65.7279 52.6426 65.7347 52.6984L65.0326 52.4118C65.4902 52.6648 66.4232 52.9452 67.5174 53.037C68.6105 53.1361 69.8615 53.1629 71.1483 53.0837C72.4426 53.0267 73.7853 52.8911 75.1497 52.7292C75.8313 52.6454 76.5226 52.5634 77.2105 52.4613L79.2468 52.1866L79.5301 52.1485C81.1703 51.9273 82.6794 53.078 82.9005 54.7182C83.059 55.8945 82.509 57.0047 81.5818 57.6196L80.5439 58.3047L79.5227 58.9219C78.8336 59.3128 78.1366 59.6947 77.4208 60.044C76.7039 60.3883 75.9767 60.7296 75.2289 61.0363C74.4795 61.3377 73.7135 61.6216 72.9276 61.8871C71.3467 62.3824 69.6916 62.8281 67.8588 63.0275C66.0357 63.2247 64.0051 63.2823 61.6673 62.6503C61.5179 62.6098 61.3755 62.5574 61.2398 62.4941L60.9651 62.363C59.1898 61.5201 58.0643 60.5655 57.0561 59.6593C56.0576 58.7481 55.2586 57.8214 54.5057 56.9112C53.0114 55.0898 51.7867 53.2638 50.6617 51.4167C49.527 49.5787 48.5313 47.7105 47.5881 45.831C47.1265 44.8861 46.666 43.9445 46.2448 42.9831C46.0328 42.5032 45.8185 42.0234 45.6162 41.5355L45.0053 40.0133C43.7777 36.9551 45.2617 33.4809 48.3199 32.2533C51.2811 31.0645 54.6328 32.4186 55.9567 35.2824L56.0547 35.4956Z" fill="#407BFF"/>
<path d="M130.841 26.2821C130.367 26.2821 129.931 26.1954 129.531 26.0221C129.137 25.8421 128.814 25.5888 128.561 25.2621L129.461 24.1821C129.654 24.4354 129.857 24.6288 130.071 24.7621C130.284 24.8888 130.514 24.9521 130.761 24.9521C131.421 24.9521 131.751 24.5654 131.751 23.7921V20.4621H129.291V19.1621H133.361V23.7021C133.361 24.5688 133.147 25.2154 132.721 25.6421C132.294 26.0688 131.667 26.2821 130.841 26.2821ZM138.361 26.2821C137.808 26.2821 137.294 26.1921 136.821 26.0121C136.354 25.8321 135.948 25.5788 135.601 25.2521C135.261 24.9254 134.994 24.5421 134.801 24.1021C134.614 23.6621 134.521 23.1821 134.521 22.6621C134.521 22.1421 134.614 21.6621 134.801 21.2221C134.994 20.7821 135.264 20.3988 135.611 20.0721C135.958 19.7454 136.364 19.4921 136.831 19.3121C137.298 19.1321 137.804 19.0421 138.351 19.0421C138.904 19.0421 139.411 19.1321 139.871 19.3121C140.338 19.4921 140.741 19.7454 141.081 20.0721C141.428 20.3988 141.698 20.7821 141.891 21.2221C142.084 21.6554 142.181 22.1354 142.181 22.6621C142.181 23.1821 142.084 23.6654 141.891 24.1121C141.698 24.5521 141.428 24.9354 141.081 25.2621C140.741 25.5821 140.338 25.8321 139.871 26.0121C139.411 26.1921 138.908 26.2821 138.361 26.2821ZM138.351 24.9021C138.664 24.9021 138.951 24.8488 139.211 24.7421C139.478 24.6354 139.711 24.4821 139.911 24.2821C140.111 24.0821 140.264 23.8454 140.371 23.5721C140.484 23.2988 140.541 22.9954 140.541 22.6621C140.541 22.3288 140.484 22.0254 140.371 21.7521C140.264 21.4788 140.111 21.2421 139.911 21.0421C139.718 20.8421 139.488 20.6888 139.221 20.5821C138.954 20.4754 138.664 20.4221 138.351 20.4221C138.038 20.4221 137.748 20.4754 137.481 20.5821C137.221 20.6888 136.991 20.8421 136.791 21.0421C136.591 21.2421 136.434 21.4788 136.321 21.7521C136.214 22.0254 136.161 22.3288 136.161 22.6621C136.161 22.9888 136.214 23.2921 136.321 23.5721C136.434 23.8454 136.588 24.0821 136.781 24.2821C136.981 24.4821 137.214 24.6354 137.481 24.7421C137.748 24.8488 138.038 24.9021 138.351 24.9021ZM143.398 26.1621V19.1621H146.818C147.698 19.1621 148.358 19.3288 148.798 19.6621C149.245 19.9954 149.468 20.4354 149.468 20.9821C149.468 21.3488 149.378 21.6688 149.198 21.9421C149.018 22.2088 148.772 22.4154 148.458 22.5621C148.145 22.7088 147.785 22.7821 147.378 22.7821L147.568 22.3721C148.008 22.3721 148.398 22.4454 148.738 22.5921C149.078 22.7321 149.342 22.9421 149.528 23.2221C149.722 23.5021 149.818 23.8454 149.818 24.2521C149.818 24.8521 149.582 25.3221 149.108 25.6621C148.635 25.9954 147.938 26.1621 147.018 26.1621H143.398ZM145.008 24.9421H146.898C147.318 24.9421 147.635 24.8754 147.848 24.7421C148.068 24.6021 148.178 24.3821 148.178 24.0821C148.178 23.7888 148.068 23.5721 147.848 23.4321C147.635 23.2854 147.318 23.2121 146.898 23.2121H144.888V22.0321H146.618C147.012 22.0321 147.312 21.9654 147.518 21.8321C147.732 21.6921 147.838 21.4821 147.838 21.2021C147.838 20.9288 147.732 20.7254 147.518 20.5921C147.312 20.4521 147.012 20.3821 146.618 20.3821H145.008V24.9421ZM153.345 26.2821C152.785 26.2821 152.248 26.2088 151.735 26.0621C151.222 25.9088 150.808 25.7121 150.495 25.4721L151.045 24.2521C151.345 24.4654 151.698 24.6421 152.105 24.7821C152.518 24.9154 152.935 24.9821 153.355 24.9821C153.675 24.9821 153.932 24.9521 154.125 24.8921C154.325 24.8254 154.472 24.7354 154.565 24.6221C154.658 24.5088 154.705 24.3788 154.705 24.2321C154.705 24.0454 154.632 23.8988 154.485 23.7921C154.338 23.6788 154.145 23.5888 153.905 23.5221C153.665 23.4488 153.398 23.3821 153.105 23.3221C152.818 23.2554 152.528 23.1754 152.235 23.0821C151.948 22.9888 151.685 22.8688 151.445 22.7221C151.205 22.5754 151.008 22.3821 150.855 22.1421C150.708 21.9021 150.635 21.5954 150.635 21.2221C150.635 20.8221 150.742 20.4588 150.955 20.1321C151.175 19.7988 151.502 19.5354 151.935 19.3421C152.375 19.1421 152.925 19.0421 153.585 19.0421C154.025 19.0421 154.458 19.0954 154.885 19.2021C155.312 19.3021 155.688 19.4554 156.015 19.6621L155.515 20.8921C155.188 20.7054 154.862 20.5688 154.535 20.4821C154.208 20.3888 153.888 20.3421 153.575 20.3421C153.262 20.3421 153.005 20.3788 152.805 20.4521C152.605 20.5254 152.462 20.6221 152.375 20.7421C152.288 20.8554 152.245 20.9888 152.245 21.1421C152.245 21.3221 152.318 21.4688 152.465 21.5821C152.612 21.6888 152.805 21.7754 153.045 21.8421C153.285 21.9088 153.548 21.9754 153.835 22.0421C154.128 22.1088 154.418 22.1854 154.705 22.2721C154.998 22.3588 155.265 22.4754 155.505 22.6221C155.745 22.7688 155.938 22.9621 156.085 23.2021C156.238 23.4421 156.315 23.7454 156.315 24.1121C156.315 24.5054 156.205 24.8654 155.985 25.1921C155.765 25.5188 155.435 25.7821 154.995 25.9821C154.562 26.1821 154.012 26.2821 153.345 26.2821Z" fill="black"/>
</svg>
