        <svg
          width="268"
          height="246"
          viewBox="0 0 268 246"
          fill="none"
          xmlns="http://www.w3.org/2000/svg"
        >
          <path
            d="M193.396 182.135C157.191 159.355 148.316 89.5395 130.193 64.7176C113.6 41.9945 73.8888 28.8473 41.8856 28.9564C9.87202 29.0651 -22.7432 52.2445 -26.4922 83.9938C-28.1194 97.807 -24.4921 111.81 -25.9097 125.653C-30.4518 169.945 -81.145 192.981 -103.849 231.297C-130.019 275.452 -114.539 333.395 -85.9701 376.039C-67.8023 403.163 -43.3167 427.844 -12.0647 437.346C19.1816 446.848 57.7547 437.211 74.2205 409.032C89.0583 383.639 88.3472 344.172 116.32 335.037C135.88 328.64 155.611 343.076 175.841 346.856C207.537 352.774 240.073 329.638 250.856 299.277C261.633 268.928 264.273 240.867 242.098 217.471C231.749 206.563 206.131 190.134 193.396 182.135Z"
            fill="#F1F4FF"
          />
          <path
            d="M-17.1356 272.262C10.1448 274.457 36.3554 286.032 58.2096 305.044C115.342 354.762 179.848 337.104 200.105 319.13C223.629 298.248 236.52 264.659 238.669 230.717C240.818 196.774 233.065 162.508 220.951 130.882C211.474 106.17 198.939 82.1951 180.564 64.7652C162.61 47.753 140.265 38.0379 118.253 29.1295C89.945 17.6674 60.8867 6.89439 31.0347 5.65005C6.69508 4.62749 -21.1299 13.0075 -30.6993 37.8337C-38.8515 58.9964 -30.8981 85.213 -39.374 106.203C-51.246 135.597 -87.8292 139.795 -106.737 163.992C-128.793 192.21 -123.759 233.197 -104.573 248.084C-84.5722 263.621 -47.3692 269.841 -17.1356 272.262Z"
            stroke="#EEF2FF"
            stroke-width="4"
            stroke-miterlimit="10"
          />
        </svg>