        <svg
          width="275"
          height="491"
          viewBox="0 0 275 491"
          fill="none"
          xmlns="http://www.w3.org/2000/svg"
        >
          <path
            d="M324.429 96.9543C285.258 109.11 228.882 72.0252 199.502 69.7397C172.605 67.6492 138.261 88.3669 118.379 111.74C98.4893 135.12 95.025 173.329 115.807 195.863C124.851 205.664 137.31 211.757 146.507 221.424C175.927 252.358 161.083 303.643 174.823 344.076C190.654 390.674 242.504 415.543 291.378 421.339C322.461 425.027 355.708 422.592 382.121 405.76C408.53 388.933 425.572 354.833 415.322 325.266C406.086 298.622 376.902 274.522 387.698 248.454C395.24 230.22 418.06 224.856 433.43 212.483C457.51 193.092 460.957 154.968 445.574 128.178C430.195 101.4 411.408 81.9743 380.54 83.5293C366.141 84.262 338.198 92.6696 324.429 96.9543Z"
            fill="#F1F4FF"
          />
          <path
            d="M258.742 306.482C277.356 287.985 302.134 276.118 329.61 272.062C401.452 261.47 428.828 203.482 428.375 177.519C427.841 147.363 411.422 117.025 388.046 94.2882C364.669 71.5525 334.88 55.824 304.294 44.9193C280.387 36.4062 255.11 30.5796 230.955 33.089C207.368 35.552 186.356 45.7642 166.139 56.2368C140.135 69.7013 114.165 84.1422 94.6384 105.104C78.7119 122.191 67.4585 147.68 79.5683 170.134C89.8942 189.271 113.946 199.832 123.945 219.097C137.944 246.076 118.182 275.335 124.01 304.197C130.8 337.859 163.787 359.759 186.596 355.073C210.385 350.2 238.12 326.988 258.742 306.482Z"
            stroke="#EEF2FF"
            stroke-width="4"
            stroke-miterlimit="10"
          />
        </svg>