<svg width="17" height="16" viewBox="0 0 17 16" fill="none" xmlns="http://www.w3.org/2000/svg">
<path d="M16.1122 3.93669C16.0992 3.40998 15.8943 2.90961 15.5503 2.56561L13.5085 0.522529C13.1731 0.187391 12.7124 0 12.2113 0C11.6843 0 11.1753 0.202412 10.8138 0.563651L6.81532 4.55353C4.45902 3.87144 1.89218 4.51463 0.136952 6.27059C0.0906995 6.31663 0.0540784 6.37142 0.0292253 6.43176C0.00437219 6.4921 -0.00821527 6.55679 -0.00780268 6.62205C-0.00739008 6.68731 0.00601432 6.75183 0.0316284 6.81185C0.0572425 6.87187 0.0945534 6.9262 0.141384 6.97165C1.31153 8.11126 2.78333 9.57838 4.21918 11.0194L0.326313 14.8571C0.280265 14.9025 0.243614 14.9566 0.218451 15.0161C0.193289 15.0757 0.180108 15.1397 0.179663 15.2044C0.179217 15.269 0.191514 15.3332 0.215852 15.3931C0.240191 15.453 0.276094 15.5076 0.321511 15.5536C0.413236 15.6466 0.538148 15.6994 0.668767 15.7003C0.733443 15.7007 0.797573 15.6884 0.857497 15.6641C0.91742 15.6397 0.971963 15.6038 1.01801 15.5584L4.91408 11.7173C5.61863 12.4257 6.32264 13.1347 7.02611 13.8443C7.83403 14.6594 8.53115 15.3617 9.0256 15.8561C9.11805 15.9483 9.24326 16 9.37379 16C9.50432 16 9.62953 15.9483 9.72198 15.8561C11.443 14.1359 12.0995 11.6825 11.4907 9.35578L15.5877 5.33166C15.9342 4.9852 16.1255 4.47646 16.1122 3.93669ZM9.36 14.7965C8.81451 14.2483 8.26958 13.6995 7.72519 13.1501C5.7779 11.1873 3.15541 8.54342 1.20072 6.62961C1.9332 6.01451 2.8064 5.59006 3.74259 5.39407C4.67879 5.19807 5.64892 5.23661 6.56662 5.50625L10.4738 9.38705C11.0465 11.2814 10.6272 13.2986 9.36 14.7965ZM14.8911 4.63603L10.9658 8.5609L7.67693 5.26321C7.68389 5.21145 7.68256 5.15892 7.67299 5.10758L11.5104 1.27012C11.6887 1.09234 11.9441 0.990145 12.2115 0.990145C12.4491 0.990145 12.6626 1.07239 12.8118 1.22161L14.8537 3.26347C15.0184 3.4282 15.1209 3.68922 15.1273 3.96157C15.1339 4.23317 15.048 4.47917 14.8911 4.63603Z" fill="#7B7B7B"/>
</svg>
