<svg width="15" height="15" viewBox="0 0 15 15" fill="none" xmlns="http://www.w3.org/2000/svg">
<path d="M9.91242 12.565C9.40851 11.605 9.77822 10.4183 10.7382 9.91438C11.6982 9.41046 12.8849 9.78017 13.3888 10.7402C13.8927 11.7001 13.523 12.8869 12.563 13.3908C11.6031 13.8947 10.4163 13.525 9.91242 12.565Z" fill="black"/>
<path fill-rule="evenodd" clip-rule="evenodd" d="M6.8331 2.47372C7.27628 2.7848 7.5277 3.21946 7.58736 3.7777H9.86932C9.85653 3.04048 9.64986 2.38849 9.24929 1.82173C8.84872 1.25071 8.29688 0.805398 7.59375 0.485795C6.89489 0.161932 6.08097 0 5.15199 0C4.2358 0 3.41548 0.161932 2.69105 0.485795C1.96662 0.805398 1.39347 1.25497 0.971591 1.83452C0.553977 2.41406 0.34517 3.08949 0.34517 3.8608C0.34517 4.7983 0.65625 5.55043 1.27841 6.11719C1.90483 6.67969 2.7571 7.09943 3.83523 7.37642L5.32457 7.75994C5.79332 7.87926 6.20241 8.01562 6.55185 8.16903C6.90554 8.31818 7.1804 8.50568 7.37642 8.73153C7.57244 8.95312 7.67259 9.23438 7.67685 9.57528C7.67259 9.95028 7.55966 10.2784 7.33807 10.5597C7.11648 10.8366 6.80966 11.054 6.41761 11.2116C6.02983 11.3651 5.57812 11.4418 5.0625 11.4418C4.56818 11.4418 4.12074 11.3672 3.72017 11.218C3.32386 11.0689 3.00213 10.843 2.75497 10.5405C2.50781 10.2379 2.36719 9.85867 2.3331 9.4027H0C0.0340909 10.272 0.259943 11.0092 0.677557 11.6143C1.09943 12.2195 1.68324 12.6797 2.42898 12.995C3.17898 13.3104 4.06321 13.468 5.08168 13.468C6.12997 13.468 7.02273 13.3061 7.75994 12.9822C8.07263 12.8439 8.35424 12.6831 8.60479 12.5001C8.33975 12.1608 8.18182 11.7338 8.18182 11.2699C8.18182 10.2142 8.99974 9.34956 10.0364 9.27509C10.0033 8.84 9.90073 8.45214 9.72869 8.11151C9.51562 7.68963 9.22585 7.32955 8.85938 7.03125C8.49716 6.73295 8.08594 6.4858 7.62571 6.28977C7.16974 6.09375 6.6946 5.93821 6.20028 5.82315L4.97301 5.51634C4.70455 5.45241 4.43821 5.37358 4.17401 5.27983C3.9098 5.18608 3.66903 5.07102 3.4517 4.93466C3.23438 4.79403 3.06179 4.62358 2.93395 4.4233C2.81037 4.22301 2.74858 3.98651 2.74858 3.71378C2.75284 3.38565 2.84872 3.09375 3.03622 2.83807C3.22372 2.58239 3.49432 2.37997 3.84801 2.23082C4.2017 2.08168 4.62571 2.0071 5.12003 2.0071C5.82315 2.0071 6.39418 2.16264 6.8331 2.47372Z" fill="url(#paint0_linear_4491_223)"/>
<path fill-rule="evenodd" clip-rule="evenodd" d="M6.8331 2.47372C7.27628 2.7848 7.5277 3.21946 7.58736 3.7777H9.86932C9.85653 3.04048 9.64986 2.38849 9.24929 1.82173C8.84872 1.25071 8.29688 0.805398 7.59375 0.485795C6.89489 0.161932 6.08097 0 5.15199 0C4.2358 0 3.41548 0.161932 2.69105 0.485795C1.96662 0.805398 1.39347 1.25497 0.971591 1.83452C0.553977 2.41406 0.34517 3.08949 0.34517 3.8608C0.34517 4.7983 0.65625 5.55043 1.27841 6.11719C1.90483 6.67969 2.7571 7.09943 3.83523 7.37642L5.32457 7.75994C5.79332 7.87926 6.20241 8.01562 6.55185 8.16903C6.90554 8.31818 7.1804 8.50568 7.37642 8.73153C7.57244 8.95312 7.67259 9.23438 7.67685 9.57528C7.67259 9.95028 7.55966 10.2784 7.33807 10.5597C7.11648 10.8366 6.80966 11.054 6.41761 11.2116C6.02983 11.3651 5.57812 11.4418 5.0625 11.4418C4.56818 11.4418 4.12074 11.3672 3.72017 11.218C3.32386 11.0689 3.00213 10.843 2.75497 10.5405C2.50781 10.2379 2.36719 9.85867 2.3331 9.4027H0C0.0340909 10.272 0.259943 11.0092 0.677557 11.6143C1.09943 12.2195 1.68324 12.6797 2.42898 12.995C3.17898 13.3104 4.06321 13.468 5.08168 13.468C6.12997 13.468 7.02273 13.3061 7.75994 12.9822C8.07263 12.8439 8.35424 12.6831 8.60479 12.5001C8.33975 12.1608 8.18182 11.7338 8.18182 11.2699C8.18182 10.2142 8.99974 9.34956 10.0364 9.27509C10.0033 8.84 9.90073 8.45214 9.72869 8.11151C9.51562 7.68963 9.22585 7.32955 8.85938 7.03125C8.49716 6.73295 8.08594 6.4858 7.62571 6.28977C7.16974 6.09375 6.6946 5.93821 6.20028 5.82315L4.97301 5.51634C4.70455 5.45241 4.43821 5.37358 4.17401 5.27983C3.9098 5.18608 3.66903 5.07102 3.4517 4.93466C3.23438 4.79403 3.06179 4.62358 2.93395 4.4233C2.81037 4.22301 2.74858 3.98651 2.74858 3.71378C2.75284 3.38565 2.84872 3.09375 3.03622 2.83807C3.22372 2.58239 3.49432 2.37997 3.84801 2.23082C4.2017 2.08168 4.62571 2.0071 5.12003 2.0071C5.82315 2.0071 6.39418 2.16264 6.8331 2.47372Z" fill="url(#paint1_linear_4491_223)" fill-opacity="0.2"/>
<defs>
<linearGradient id="paint0_linear_4491_223" x1="7.5" y1="1.5" x2="1.5" y2="12" gradientUnits="userSpaceOnUse">
<stop stop-color="#EB466E"/>
<stop offset="1" stop-color="#9B1368"/>
</linearGradient>
<linearGradient id="paint1_linear_4491_223" x1="9" y1="1.5" x2="2" y2="2" gradientUnits="userSpaceOnUse">
<stop stop-color="#ED476E"/>
<stop offset="1" stop-color="#9D1969"/>
</linearGradient>
</defs>
</svg>
