            <svg
              width="17"
              height="17"
              viewBox="0 0 17 17"
              fill="none"
              xmlns="http://www.w3.org/2000/svg"
            >
              <path
                d="M6.67145 9.59522L7.02542 9.94919L7.37897 9.59481L10.9525 6.01294C10.9527 6.01273 10.9529 6.01253 10.9531 6.01232C11.0155 5.95062 11.0997 5.91601 11.1875 5.91601C11.2756 5.91601 11.36 5.95085 11.4225 6.01294L11.4229 6.01333C11.4541 6.04432 11.4789 6.08119 11.4959 6.12181L11.9574 5.92952L11.4959 6.12181C11.5128 6.16243 11.5215 6.20599 11.5215 6.25C11.5215 6.29401 11.5128 6.33757 11.4959 6.37819L11.9574 6.57048L11.4959 6.37819C11.4789 6.41881 11.4541 6.45568 11.4229 6.48666L11.4214 6.48811L7.25623 10.6533C7.25605 10.6535 7.25587 10.6537 7.25568 10.6539C7.19365 10.7151 7.11009 10.7496 7.0229 10.75L7.02212 10.75C6.97825 10.7503 6.93476 10.7419 6.89414 10.7253C6.85391 10.7088 6.81729 10.6847 6.78633 10.6542C6.78603 10.6539 6.78574 10.6536 6.78545 10.6533L4.82931 8.68886L4.8153 8.6748L4.80023 8.66189C4.76534 8.63201 4.737 8.59524 4.71699 8.55389C4.69698 8.51253 4.68574 8.46749 4.68397 8.42158C4.68219 8.37567 4.68993 8.3299 4.70669 8.28712C4.72344 8.24434 4.74886 8.2055 4.78135 8.17301C4.81383 8.14053 4.85268 8.11511 4.89546 8.09835C4.93823 8.08159 4.98401 8.07386 5.02992 8.07563C5.07582 8.0774 5.12087 8.08865 5.16222 8.10865C5.20358 8.12866 5.24035 8.157 5.27023 8.19189L5.28279 8.20656L5.29645 8.22022L6.67145 9.59522ZM3.98137 1.82015C5.26956 0.959417 6.78405 0.5 8.33334 0.5C9.36203 0.5 10.3806 0.702615 11.331 1.09628C12.2814 1.48994 13.1449 2.06694 13.8723 2.79433C14.5997 3.52172 15.1767 4.38526 15.5704 5.33565C15.9641 6.28603 16.1667 7.30465 16.1667 8.33333C16.1667 9.88262 15.7073 11.3971 14.8465 12.6853C13.9858 13.9735 12.7624 14.9775 11.331 15.5704C9.89967 16.1633 8.32465 16.3184 6.80513 16.0162C5.28561 15.7139 3.88985 14.9678 2.79433 13.8723C1.69882 12.7768 0.95277 11.3811 0.650519 9.86154C0.348268 8.34202 0.503394 6.767 1.09628 5.33565C1.68917 3.90429 2.69319 2.68089 3.98137 1.82015ZM4.35175 14.2922C5.5303 15.0797 6.9159 15.5 8.33334 15.5C10.2341 15.5 12.0569 14.7449 13.4009 13.4009C14.7449 12.0569 15.5 10.2341 15.5 8.33333C15.5 6.9159 15.0797 5.5303 14.2922 4.35175C13.5047 3.17319 12.3854 2.25463 11.0759 1.7122C9.76636 1.16977 8.32539 1.02785 6.93519 1.30437C5.54499 1.5809 4.26801 2.26346 3.26574 3.26574C2.26346 4.26801 1.5809 5.54499 1.30438 6.93519C1.02785 8.32538 1.16977 9.76636 1.7122 11.0759C2.25463 12.3854 3.1732 13.5047 4.35175 14.2922Z"
                stroke="#23A047"
              />
            </svg>