
<svg width="22" height="22" viewBox="0 0 22 22" fill="none" xmlns="http://www.w3.org/2000/svg">
<path fill-rule="evenodd" clip-rule="evenodd" d="M18.0894 1.35515C18.2157 1.11195 18.1856 0.816841 18.0125 0.604231C17.8396 0.391622 17.5569 0.302075 17.2929 0.376325C15.0168 1.01742 11.0014 2.14801 11.0014 2.14801C11.0014 2.14801 6.98606 1.01742 4.70975 0.376325C4.44592 0.302075 4.16319 0.391622 3.99011 0.604231C3.81721 0.816841 3.78696 1.11195 3.91346 1.35515C4.62089 2.71675 5.67002 4.73542 6.26144 5.87375C6.36439 6.07175 6.55707 6.20753 6.7781 6.23778C6.99913 6.2682 7.22119 6.18931 7.37364 6.02637C8.57849 4.73834 11.0014 2.14801 11.0014 2.14801C11.0014 2.14801 13.4243 4.73834 14.6292 6.02637C14.7816 6.18931 15.0037 6.2682 15.2247 6.23778C15.4458 6.20753 15.6384 6.07175 15.7412 5.87375C16.3328 4.73542 17.3818 2.71675 18.0894 1.35515Z" fill="#4339f2"/>
<path fill-rule="evenodd" clip-rule="evenodd" d="M12.7252 4.99869L12.2708 6.51222H9.7291L9.27467 4.99869L10.9999 3.1543L12.7252 4.99869ZM9.64214 7.19422L8.17948 18.5722C8.15335 18.7746 8.21867 18.9783 8.35771 19.1278C8.81181 19.6167 9.86523 20.7505 10.4962 21.4296C10.6263 21.5697 10.8088 21.6493 10.9999 21.6493C11.1911 21.6493 11.3734 21.5697 11.5035 21.4296C12.1347 20.7505 13.1881 19.6167 13.6422 19.1278C13.7812 18.9783 13.8464 18.7746 13.8204 18.5722L12.3578 7.19422C12.3292 7.19783 12.3002 7.19972 12.2708 7.19972H9.7291C9.69971 7.19972 9.67067 7.19783 9.64214 7.19422Z" fill="#4339f2"/>
</svg>
