   <svg
      width="10"
      height="11"
      viewBox="0 0 10 11"
      fill="none"
      xmlns="http://www.w3.org/2000/svg"
    >
      <path
        d="M8.11111 5H1.88889C1.39797 5 1 5.39797 1 5.88889V9C1 9.49092 1.39797 9.88889 1.88889 9.88889H8.11111C8.60203 9.88889 9 9.49092 9 9V5.88889C9 5.39797 8.60203 5 8.11111 5Z"
        stroke="white"
        stroke-linecap="round"
        stroke-linejoin="round"
      />
      <path
        d="M2.77777 5V3.22222C2.77777 2.63285 3.0119 2.06762 3.42864 1.65087C3.84539 1.23413 4.41062 1 4.99999 1C5.58936 1 6.15459 1.23413 6.57134 1.65087C6.98809 2.06762 7.22222 2.63285 7.22222 3.22222V5"
        stroke="white"
        stroke-linecap="round"
        stroke-linejoin="round"
      />
    </svg>