<svg width="24" height="24" viewBox="0 0 24 24" fill="none" xmlns="http://www.w3.org/2000/svg">
<rect width="24" height="24" rx="2" fill="black"/>
<path fill-rule="evenodd" clip-rule="evenodd" d="M15.5302 8.57736C15.4448 8.55036 15.3452 8.56386 15.2456 8.59086L14.8612 8.71236V5.32399C14.8612 5.14849 14.7046 5 14.5196 5H9.46619C9.28114 5 9.12456 5.14849 9.12456 5.32399V8.72586L8.74021 8.60436C8.64057 8.57736 8.54093 8.56386 8.45552 8.59086C8.31317 8.61786 8 8.75286 8 9.27934V12.1142C8.0427 12.3572 8.21352 12.6407 8.59786 12.6407H9.879C10.0071 12.7892 10.3203 13.0322 10.9181 13.0727C10.9324 13.4912 11.1886 13.8422 11.573 13.9907V14.7871C11.573 14.8006 11.5587 14.8141 11.5445 14.8141C9.75089 14.8681 8.6121 15.4081 8.2847 15.5836C8.08541 15.6916 8.0427 15.9211 8.0427 16.0696V16.6905C8.05694 16.9065 8.24199 17.082 8.48399 17.082C8.69751 17.082 8.88256 16.9065 8.8968 16.704C8.91103 16.5016 8.76868 16.3396 8.5694 16.2856C8.55516 16.2856 8.54093 16.2721 8.54093 16.2586V16.0291C8.54093 15.9751 8.5694 15.9211 8.62633 15.8941C9.11032 15.6376 10.3488 15.5161 11.2883 15.4621H11.5587C11.573 15.4621 11.5872 15.4756 11.5872 15.4891C11.6299 16.2046 11.7153 16.812 11.7438 17.19H11.7153C11.5587 17.19 11.4164 17.3655 11.4164 17.595C11.4164 17.8245 11.5587 18 11.7153 18H12.2847C12.4413 18 12.5836 17.8245 12.5836 17.595C12.5836 17.3655 12.4413 17.19 12.2847 17.19H12.2562C12.2562 17.19 12.3559 16.2046 12.4128 15.4891C12.4128 15.4756 12.427 15.4621 12.4413 15.4621H12.7117C13.6512 15.5026 14.8897 15.6376 15.3737 15.8941C15.4306 15.9211 15.4591 15.9751 15.4591 16.0291V16.2586C15.4591 16.2721 15.4448 16.2856 15.4306 16.2856C15.2313 16.3261 15.089 16.5016 15.1032 16.704C15.1174 16.9065 15.3025 17.082 15.516 17.082C15.7438 17.082 15.9431 16.92 15.9573 16.6905V16.0696C15.9573 15.9211 15.9146 15.7051 15.7153 15.5836C15.3879 15.4081 14.2349 14.8681 12.4555 14.8006C12.4413 14.8006 12.427 14.7871 12.427 14.7736V13.9772C12.8114 13.8287 13.0676 13.4777 13.0819 13.0592C13.6655 13.0187 13.9786 12.7622 14.121 12.6272H15.4021C15.7865 12.6272 15.9573 12.3437 16 12.1007V9.26584C15.9858 8.73936 15.6726 8.61786 15.5302 8.57736ZM9.12456 11.5202L8.54093 11.9387C8.52669 11.9522 8.51246 11.9387 8.51246 11.9252V9.26584C8.51246 9.15784 8.52669 9.02285 8.58363 9.03634L9.09609 9.19834C9.11032 9.19834 9.12456 9.22534 9.12456 9.23884V11.5202ZM15.4591 11.9387L14.8754 11.5202V9.25234C14.8754 9.23884 14.8897 9.22534 14.9039 9.21184L15.4164 9.04984C15.4875 9.03634 15.4875 9.17134 15.4875 9.27934V11.9387C15.4875 11.9387 15.4733 11.9522 15.4591 11.9387Z" fill="#43D45D"/>
</svg>
