<svg width="10" height="18" viewBox="0 0 10 18" fill="none" xmlns="http://www.w3.org/2000/svg">
<path fill-rule="evenodd" clip-rule="evenodd" d="M9.41281 4.6922C9.30605 4.65679 9.18149 4.67449 9.05694 4.70991L8.57651 4.86927V0.424954C8.57651 0.194771 8.38078 0 8.14947 0H1.83274C1.60142 0 1.40569 0.194771 1.40569 0.424954V4.88697L0.925267 4.72761C0.800712 4.6922 0.676157 4.67449 0.569395 4.70991C0.391459 4.74532 0 4.92238 0 5.61294V9.33128C0.0533808 9.65 0.266904 10.0218 0.747331 10.0218H2.34875C2.5089 10.2166 2.90036 10.5353 3.64769 10.5884C3.66548 11.1373 3.98577 11.5977 4.46619 11.7925V12.8372C4.46619 12.8549 4.4484 12.8726 4.4306 12.8726C2.18861 12.9434 0.765125 13.6516 0.355872 13.8818C0.106762 14.0235 0.0533808 14.3245 0.0533808 14.5193V15.3338C0.0711744 15.6171 0.302491 15.8472 0.604982 15.8472C0.871886 15.8472 1.1032 15.6171 1.121 15.3515C1.13879 15.0859 0.960854 14.8734 0.711744 14.8026C0.69395 14.8026 0.676157 14.7849 0.676157 14.7672V14.4661C0.676157 14.3953 0.711744 14.3245 0.782918 14.2891C1.3879 13.9527 2.93594 13.7933 4.11032 13.7225H4.4484C4.46619 13.7225 4.48399 13.7402 4.48399 13.7579C4.53737 14.6963 4.64413 15.4931 4.67972 15.9889H4.64413C4.4484 15.9889 4.27046 16.2191 4.27046 16.5201C4.27046 16.8211 4.4484 17.0513 4.64413 17.0513H5.35587C5.5516 17.0513 5.72954 16.8211 5.72954 16.5201C5.72954 16.2191 5.5516 15.9889 5.35587 15.9889H5.32028C5.32028 15.9889 5.44484 14.6963 5.51601 13.7579C5.51601 13.7402 5.53381 13.7225 5.5516 13.7225H5.88968C7.06406 13.7756 8.6121 13.9527 9.21708 14.2891C9.28826 14.3245 9.32384 14.3953 9.32384 14.4661V14.7672C9.32384 14.7849 9.30605 14.8026 9.28826 14.8026C9.03915 14.8557 8.86121 15.0859 8.879 15.3515C8.8968 15.6171 9.12811 15.8472 9.39502 15.8472C9.67972 15.8472 9.92883 15.6348 9.94662 15.3338V14.5193C9.94662 14.3245 9.89324 14.0412 9.64413 13.8818C9.23488 13.6516 7.79359 12.9434 5.56939 12.8549C5.5516 12.8549 5.53381 12.8372 5.53381 12.8194V11.7748C6.01423 11.58 6.33452 11.1196 6.35231 10.5707C7.08185 10.5176 7.47331 10.1812 7.65125 10.0041H9.25267C9.7331 10.0041 9.94662 9.63229 10 9.31358V5.59523C9.98221 4.90468 9.59075 4.74532 9.41281 4.6922ZM1.40569 8.5522L0.676157 9.1011C0.658363 9.11881 0.640569 9.1011 0.640569 9.08339V5.59523C0.640569 5.45358 0.658363 5.27651 0.729537 5.29422L1.37011 5.5067C1.3879 5.5067 1.40569 5.54211 1.40569 5.55982V8.5522ZM9.32384 9.1011L8.59431 8.5522V5.57752C8.59431 5.55982 8.6121 5.54211 8.62989 5.5244L9.27046 5.31193C9.35943 5.29422 9.35943 5.47128 9.35943 5.61294V9.1011C9.35943 9.1011 9.34164 9.11881 9.32384 9.1011Z" fill="#43D45D"/>
</svg>
